<svg xmlns="http://www.w3.org/2000/svg" xmlns:xlink="http://www.w3.org/1999/xlink" width="100%" height="100%" preserveAspectRatio="xMidYMid slice" viewBox="0 0 1440 1024" fill="none" xmlns:v="https://vecta.io/nano"><style><![CDATA[.B{stroke-linejoin:round}.C{stroke-miterlimit:10}.D{stroke-width:1.851}.E{stroke:#000}.F{fill:#fff}.G{stroke-linecap:round}.H{fill:#fbe62e}.I{stroke:#f8bc20}.J{fill:#fb5d96}.K{fill-rule:evenodd}]]></style><path fill="#7304e2" d="M0 0h1440v1024H0z"/><path d="M620.811 244.104c23.525 0 42.551-19.027 42.551-42.552S644.336 159 620.811 159s-42.552 19.026-42.552 42.552 19.026 42.552 42.552 42.552z" class="C D E J"/><path d="M636.881 167.615c10.927 6.556 18.383 20.954 18.383 34.581 0 13.756-7.327 28.025-18.383 34.581 13.37-5.784 22.754-19.154 22.754-34.581s-9.384-28.796-22.754-34.581z" class="F"/><g class="C D E G"><path d="M664.774 196.537c22.111 1.286 36.895 3.471 36.895 5.785 0 3.728-35.738 6.557-79.961 6.428-44.095-.128-79.833-3.342-79.833-7.07 0-2.314 13.884-4.243 34.967-5.4"/><use xlink:href="#B"/><path d="M665.033 199.624c6.17.771 9.898 1.671 9.898 2.7 0 2.442-23.782 4.371-53.221 4.242-29.311-.128-53.094-2.314-53.094-4.756 0-.9 2.828-1.672 7.842-2.314"/><path d="M663.49 190.239c61.321 1.8 106.059 6.814 106.059 12.47 0 6.813-66.206 12.084-147.839 11.827-81.633-.514-147.71-6.299-147.71-13.241 0-5.656 43.709-10.156 103.873-11.441"/></g><g stroke="#fff" class="C D G"><path d="M664.774 195.638c22.111 1.286 36.895 3.471 36.895 5.785 0 3.729-35.738 6.557-79.961 6.428-44.095-.128-79.833-3.342-79.833-7.07 0-2.314 13.884-4.243 34.967-5.4"/><use xlink:href="#B" y="-0.77"/><path d="M665.033 198.723c6.17.771 9.898 1.671 9.898 2.699 0 2.443-23.782 4.371-53.221 4.243-29.311-.129-53.094-2.314-53.094-4.757 0-.9 2.828-1.671 7.842-2.314"/><path d="M663.49 189.467c61.321 1.799 106.059 6.813 106.059 12.47 0 6.813-66.206 12.084-147.839 11.827-81.633-.515-147.71-6.428-147.71-13.242 0-5.656 43.709-10.155 103.873-11.441"/></g><g class="E C D"><path d="M490.328 211.45c2.957 0 5.399-2.443 5.399-5.4s-2.442-5.399-5.399-5.399-5.399 2.442-5.399 5.399 2.442 5.4 5.399 5.4zm262.51-10.155c2.957 0 5.399-2.442 5.399-5.399s-2.442-5.399-5.399-5.399-5.4 2.442-5.4 5.399 2.443 5.399 5.4 5.399zm-56.952 5.013c1.543 0 2.7-1.157 2.7-2.7s-1.157-2.699-2.7-2.699-2.699 1.157-2.699 2.699 1.157 2.7 2.699 2.7zm-130.1-7.583c1.542 0 2.699-1.157 2.699-2.7s-1.157-2.7-2.699-2.7-2.7 1.157-2.7 2.7 1.157 2.7 2.7 2.7zm52.968 14.397c1.543 0 2.7-1.157 2.7-2.7s-1.157-2.699-2.7-2.699-2.699 1.157-2.699 2.699c0 1.414 1.157 2.7 2.699 2.7z" class="B H"/><path d="M1359.11 880.589h-1.64v13.006h1.64v-13.006zm2.93.82h-1.64v41.832h1.64v-41.832zm25.19 20.857c0 4.335 3.52 7.851 7.85 7.851v-15.819c-4.33.117-7.85 3.632-7.85 7.968z" class="F"/></g><path opacity=".1" d="M1387.58 904.726c1.06 3.164 3.99 5.39 7.5 5.39v-5.39h-7.5z" fill="#000"/><g class="C D E F"><path d="M1340.36 901.68h-43.94v1.054h43.94v-1.054z"/><path d="M1381.37 914.333h-41.01v-24.021h41.01c4.22 0 7.62 3.398 7.62 7.616v8.788c.12 4.101-3.28 7.617-7.62 7.617zm-43.94-12.068c0 11.366-9.25 20.623-20.62 20.623v-41.246c11.37 0 20.62 9.257 20.62 20.623z"/></g><use xlink:href="#C" fill="#000"/><path d="M1375.28 890.197h-30v24.021h30v-24.021z" class="C D E J"/><path opacity=".1" d="M1316.81 901.915v20.974c11.37 0 20.62-9.257 20.62-20.623v-.351h-20.62zm23.55.233v12.186h41.01c4.22 0 7.62-3.398 7.62-7.616v-4.453l-48.63-.117z" fill="#000"/><path d="M1322.67 883.399c5.97 3.633 9.96 11.367 9.96 18.866s-3.99 15.233-9.96 18.865c7.26-3.164 12.42-10.429 12.42-18.865-.12-8.437-5.16-15.702-12.42-18.866zm58.47 7.852c3.52 2.11 5.86 6.68 5.86 11.015s-2.34 8.905-5.86 11.015c4.22-1.875 7.27-6.094 7.27-11.015-.12-4.921-3.05-9.14-7.27-11.015z" class="F"/><g class="C D"><g stroke="#fff"><path d="M1295.13 913.395c-6.09 0-11.13-4.921-11.13-11.131 0-6.094 4.92-11.132 11.13-11.132a11.13 11.13 0 0 1 11.13 11.132c0 6.093-5.04 11.131-11.13 11.131z"/><path d="M1295.13 910.937c-4.8 0-8.67-3.867-8.67-8.671s3.87-8.671 8.67-8.671c4.81 0 8.67 3.867 8.67 8.671s-3.86 8.671-8.67 8.671z"/><path d="M1295.13 908.594a6.3 6.3 0 0 1 0-12.656 6.3 6.3 0 0 1 6.33 6.328c0 3.515-2.93 6.328-6.33 6.328z"/></g><g class="E"><use xlink:href="#C" class="J"/><path d="M1362.04 910.117h-1.64v13.007h1.64v-13.007zm-2.81 0h-1.64v13.007h1.64v-13.007z" class="F"/><g class="B H"><path d="M1375.87 822h-30v59.408h30V822z"/><path d="M1360.87 822h-15v59.408h15V822z"/><path d="M1375.63 822h-14.99v59.408h14.99V822z"/></g><path d="M1375.87 822h-30v6.796h30V822z" class="B"/><use xlink:href="#D" class="B"/><use xlink:href="#D" y="6.56" class="B"/><use xlink:href="#D" y="13.122" class="B"/><use xlink:href="#D" y="19.803" class="B"/><use xlink:href="#D" y="26.365" class="B"/><use xlink:href="#D" y="32.927" class="B"/><use xlink:href="#D" y="39.605" class="B"/><g class="H B"><path d="M1375.87 923.122h-30v59.408h30v-59.408z"/><path d="M1360.87 923.122h-15v59.408h15v-59.408z"/><path d="M1375.63 923.122h-14.99v59.408h14.99v-59.408z"/></g><use xlink:href="#D" y="94.56" class="B"/><use xlink:href="#D" y="101.237" class="B"/><use xlink:href="#D" y="107.801" class="B"/><path d="M1375.87 942.922h-30v6.797h30v-6.797z" class="B"/><path d="M1375.87 949.604h-30v6.797h30v-6.797z" class="B"/><use xlink:href="#D" y="127.604" class="B"/><use xlink:href="#D" y="134.166" class="B"/><use xlink:href="#D" y="140.843" class="B"/><path d="M1389.44 194.464c-4.62-4.619-11.87-4.619-16.49 0l-1.54 1.539-1.54-1.539c-4.62-4.619-11.87-4.619-16.49 0a11.54 11.54 0 0 0 0 16.492l1.54 1.54 16.49 16.493 16.49-16.493 1.54-1.54c4.62-4.618 4.62-12.094 0-16.492z" class="H"/></g><path d="M1346.56 204.14c-6.6 1.099-10.56 3.078-10.56 5.057-.22 4.179 15.84 8.137 35.63 8.577s35.84-2.639 35.84-6.817c0-2.419-4.84-4.618-12.53-6.158" stroke="#fb5d96" class="G"/><g class="E"><path d="M116.872 892.421c12.266 0 22.21-9.944 22.21-22.211S129.138 848 116.872 848s-22.211 9.944-22.211 22.21 9.944 22.211 22.211 22.211z" class="H"/><path d="M104.996 874.829c1.759 4.838 6.597 8.137 11.875 8.137a12.77 12.77 0 0 0 11.875-8.137" class="G"/></g></g><g fill="#000"><use xlink:href="#E"/><use xlink:href="#E" x="13.416"/></g><g class="C D"><path d="M136.664 855.917c6.597-1.32 10.995-.88 11.655.879 1.539 3.959-11.875 13.195-30.127 20.891s-34.305 10.776-36.065 6.817c-.88-2.199 2.859-5.937 9.456-10.335" stroke="#fb5d96"/><path d="M1081.85 891.708l-.88-4.838c-.66-4.178-3.95-7.477-8.13-8.136l-4.84-.88 4.84-.88c4.18-.659 7.47-3.958 8.13-8.136l.88-4.838.88 4.838c.66 4.178 3.96 7.477 8.14 8.136l4.84.88-4.84.88c-4.18.659-7.48 3.958-8.14 8.136l-.88 4.838zM770.173 752.106l-2.199-13.634L755 736.053l12.974-2.419L770.173 720l2.2 13.634 12.974 2.419-12.974 2.419-2.2 13.634zM45.812 552c4.178 2.199 7.257 6.597 7.257 11.655 0 7.257-5.937 13.194-13.194 13.194-5.278 0-9.896-3.078-11.875-7.696 1.099 7.037 7.257 12.534 14.734 12.534 8.357 0 14.954-6.817 14.954-14.953 0-7.257-5.058-13.415-11.875-14.734z" class="B E F"/><path d="M1365.28 699.555c3.08 0 5.28-2.418 5.28-5.277 0-3.079-2.42-5.278-5.28-5.278-3.08 0-5.28 2.419-5.28 5.278s2.42 5.277 5.28 5.277z" class="B I"/></g><g class="F"><path d="M190.58 246.492l4.618-6.597-4.618-6.597 6.597 4.618 6.597-4.618-4.618 6.597 4.618 6.597-6.597-4.618-6.597 4.618z"/><path d="M184.194 205.389l-1.979-11.215-11.215-1.98 11.215-1.979L184.194 179l1.979 11.215 11.216 1.979-11.216 1.98-1.979 11.215zM69.718 220.435l-.22-1.979c-.44-1.759-1.539-3.079-3.519-3.519L64 214.718l1.979-.22c1.759-.22 3.079-1.54 3.519-3.519l.22-1.979.22 1.979c.22 1.759 1.539 3.079 3.519 3.519l1.979.22-1.979.219c-1.759.22-3.079 1.54-3.519 3.519l-.22 1.979zM191.435 914.87l.66-3.958c.66-3.519 3.298-6.157 6.817-6.817l4.178-.66-4.178-.66c-3.519-.659-6.157-3.298-6.817-6.817l-.66-3.958-.66 3.958c-.659 3.519-3.298 6.158-6.817 6.817l-3.958.66 3.958.66c3.519.66 6.158 3.298 6.817 6.817l.66 3.958z" class="B C D E"/></g><path d="M858.597 955.194c3.519 0 6.597-2.858 6.597-6.597 0-3.518-2.858-6.597-6.597-6.597S852 944.859 852 948.597s2.859 6.597 6.597 6.597z" class="B C D I"/><g class="F"><path d="M901.854 979.708l-.88-4.838a9.8 9.8 0 0 0-8.136-8.136l-4.838-.88 4.838-.88a9.8 9.8 0 0 0 8.136-8.136l.88-4.838.88 4.838a9.8 9.8 0 0 0 8.136 8.136l4.838.88-4.838.88a9.8 9.8 0 0 0-8.136 8.136l-.88 4.838z" class="B C D E"/><path d="M699.193 961.876l-3.079-4.398 3.079-4.398-4.398 3.079-4.399-3.079 3.079 4.398-3.079 4.398 4.399-3.078 4.398 3.078z"/><path d="M742.796 814.592l1.32-7.476 7.476-1.32-7.476-1.319-1.32-7.477-1.319 7.477-7.477 1.319 7.477 1.32 1.319 7.476z" class="B C D E"/><path d="M769 310.273l5.278-8.136L769 294l7.697 5.718 7.696-5.718-5.277 8.137 5.277 8.136-7.696-5.718-7.697 5.718z"/></g><path d="M1109.66 985.278c1.54 0 2.64-1.1 2.64-2.639s-1.1-2.639-2.64-2.639-2.64 1.1-2.64 2.639c-.22 1.319 1.1 2.639 2.64 2.639z" class="B C D I"/><g class="F"><path d="M1053.76 153.893l2.2-3.079-2.2-3.079 3.08 2.199 3.08-2.199-2.2 3.079 2.2 3.079-3.08-2.199-3.08 2.199z"/><path d="M1066.16 138.095l-.88-5.278-5.28-.88 5.28-.879.88-5.058.88 5.058 5.05.879-5.05.88-.88 5.278z" class="B C D E"/></g><path d="M96.597 151.194c3.519 0 6.597-2.858 6.597-6.597 0-3.518-2.858-6.597-6.597-6.597-3.519 0-6.597 2.859-6.597 6.597 0 3.519 3.079 6.597 6.597 6.597zm1022.003-25c3.52 0 6.59-2.858 6.59-6.597s-2.85-6.597-6.59-6.597-6.6 2.859-6.6 6.597 3.08 6.597 6.6 6.597zm-84.63-14.961c3.08 0 5.27-2.419 5.27-5.278 0-3.078-2.41-5.277-5.27-5.277-3.08 0-5.28 2.419-5.28 5.277s2.42 5.278 5.28 5.278z" class="I B C D"/><path d="M100.854 965.708l-.879-4.838c-.66-4.178-3.958-7.477-8.137-8.136l-4.838-.88 4.838-.88c4.178-.659 7.477-3.958 8.137-8.136l.879-4.838.88 4.838a9.8 9.8 0 0 0 8.136 8.136l4.838.88-4.838.88a9.8 9.8 0 0 0-8.136 8.136l-.88 4.838zM1335.56 507.111l-1.54-9.016-9.02-1.54 9.02-1.539 1.54-9.016 1.53 9.016 9.02 1.539-9.02 1.54-1.53 9.016z" class="E F B C D"/><path d="M719.639 760.278c1.539 0 2.639-1.1 2.639-2.639s-1.1-2.639-2.639-2.639-2.639 1.1-2.639 2.639 1.319 2.639 2.639 2.639z" class="B C D I"/><g class="E C"><g stroke-width="1.241"><path d="M660 824.085A18.09 18.09 0 0 0 641.915 806h-210c-4.049 0-7.288 3.51-6.748 7.828.54 3.509 3.779 6.208 7.288 6.208h47.776c3.239 0 6.478 2.43 6.748 5.669.27 3.779-2.699 7.018-6.478 7.018H354.447c-4.049 0-7.288 3.509-6.748 7.828.54 3.509 3.779 6.208 7.288 6.208h49.396c3.239 0 6.478 2.429 6.748 5.668.27 3.779-2.699 7.018-6.478 7.018H284.807c-4.049 0-7.288 3.509-6.748 7.828.54 3.509 3.779 6.208 7.288 6.208h119.036c3.239 0 6.478 2.43 6.748 5.669.27 3.779-2.699 7.018-6.478 7.018h-50.206c-3.779 0-7.018 3.239-7.018 7.018s3.239 7.018 7.018 7.018h125.514c3.239 0 6.479 2.429 6.748 5.668.27 3.779-2.699 7.018-6.478 7.018h-48.586c-3.779 0-7.018 3.239-7.018 7.018s3.239 7.018 7.018 7.018h210a18.09 18.09 0 0 0 18.085-18.085l.27-84.756zm-221.067 62.622h-15.655c-3.509 0-6.479-2.969-6.479-6.478s2.97-6.478 6.479-6.478h15.655c3.509 0 6.478 2.969 6.478 6.478 0 3.779-2.969 6.478-6.478 6.478zm38.599-26.992h-54.794c-3.509 0-6.478-2.969-6.478-6.478s2.969-6.478 6.478-6.478h54.794c3.509 0 6.478 2.969 6.478 6.478s-2.969 6.478-6.478 6.478zm21.594-39.679h1.889c3.509 0 6.479 2.97 6.479 6.479s-2.97 6.478-6.479 6.478h-1.889c-3.509 0-6.478-2.969-6.478-6.478.27-3.509 2.969-6.479 6.478-6.479zm10.797 86.376c0 3.509-2.969 6.478-6.478 6.478h-4.589c-3.509 0-6.478-2.969-6.478-6.478s2.969-6.478 6.478-6.478h4.589c3.509 0 6.478 2.969 6.478 6.478z" class="J"/><g class="B"><path d="M636.328 919.539H507.845c-4.859 0-8.638-4.049-8.638-8.638v-81.516c0-4.859 4.049-8.638 8.638-8.638h128.483c4.859 0 8.637 4.049 8.637 8.638v81.516c0 4.859-3.778 8.638-8.637 8.638z" fill="#01090f"/><path d="M640.298 916.4H511.814c-4.858 0-8.637-4.049-8.637-8.638v-81.517c0-4.858 4.049-8.637 8.637-8.637h128.484c4.858 0 8.637 4.049 8.637 8.637v81.517c0 4.859-3.779 8.638-8.637 8.638z" class="H"/></g><path d="M531.65 817.797v99.062"/><path d="M503.629 848.768h146.028m-118.743-.826l-13.948-5.054c-4.65-1.819-6.065-7.682-2.426-11.321 3.436-3.436 9.501-2.223 11.32 2.426l5.054 13.949z"/><path d="M532.39 847.942l13.948-5.054c4.65-1.819 6.065-7.682 2.426-11.321-3.437-3.436-9.501-2.223-11.321 2.426l-5.053 13.949z"/><path d="M531.862 847.292l-14.96 14.959m15.488-14.31l14.959 14.96" class="G"/></g><path d="M586.95 872.362c12.624 0 22.857-10.234 22.857-22.858s-10.233-22.858-22.857-22.858-22.858 10.234-22.858 22.858 10.234 22.858 22.858 22.858z" fill="#2c71f0" stroke-width="1.132" class="B"/></g><g class="F"><path d="M578.011 854.14v1.068h.771v-1.069c.605-.034 1.132-.149 1.58-.346.545-.242.962-.575 1.251-1.002a2.61 2.61 0 0 0 .432-1.49c0-.417-.078-.781-.235-1.091s-.37-.575-.639-.794a3.68 3.68 0 0 0-.908-.546 6.27 6.27 0 0 0-1.048-.343l-.433-.108v-2.678c.355.042.654.149.898.322.326.229.511.549.555.959h1.678a2.5 2.5 0 0 0-.456-1.438c-.294-.42-.7-.748-1.217-.983a4.02 4.02 0 0 0-1.458-.347v-1.082h-.771v1.089c-.502.041-.961.154-1.377.34-.533.235-.955.566-1.265.992s-.461.923-.461 1.491c0 .689.229 1.242.687 1.659s1.087.723 1.88.926l.536.138v2.833a2.59 2.59 0 0 1-.62-.145 1.64 1.64 0 0 1-.71-.498c-.182-.223-.286-.502-.311-.837h-1.716c.025.639.191 1.181.499 1.627s.739.783 1.288 1.015c.456.192.979.304 1.57.338zm.771-1.504c.216-.026.414-.075.593-.146.288-.116.514-.275.677-.479s.246-.448.249-.724c-.003-.251-.077-.458-.221-.621s-.346-.304-.607-.414a5.51 5.51 0 0 0-.691-.244v2.628zm-.771-4.415v-2.475l.022-.003a3.17 3.17 0 0 1 .387-.023 2.99 2.99 0 0 1 .362.021v-1.487c-.008-.001-.016-.001-.024-.001l-.314-.009-.433.017v1.485c-.194.026-.37.073-.526.139-.261.109-.46.258-.597.446s-.209.403-.212.644c0 .201.045.375.136.522s.221.273.381.376a2.66 2.66 0 0 0 .531.254l.287.094z" class="K"/><use xlink:href="#F"/><path d="M586.609 854.14v1.068h.771v-1.069c.605-.034 1.132-.149 1.58-.346.545-.242.962-.575 1.251-1.002a2.61 2.61 0 0 0 .432-1.49c0-.417-.078-.781-.235-1.091s-.37-.575-.639-.794a3.68 3.68 0 0 0-.908-.546 6.27 6.27 0 0 0-1.048-.343l-.433-.108v-2.678c.355.042.654.149.898.322.326.229.511.549.555.959h1.678a2.5 2.5 0 0 0-.456-1.438c-.294-.42-.7-.748-1.217-.983a4.02 4.02 0 0 0-1.458-.347v-1.082h-.771v1.089c-.502.041-.961.154-1.377.34-.533.235-.955.566-1.265.992s-.461.923-.461 1.491c0 .689.229 1.242.687 1.659s1.087.723 1.88.926l.536.138v2.833a2.59 2.59 0 0 1-.62-.145 1.64 1.64 0 0 1-.71-.498c-.182-.223-.286-.502-.311-.837h-1.716c.025.639.191 1.181.499 1.627s.739.783 1.288 1.015c.456.192.979.304 1.57.338zm.771-1.504c.216-.026.414-.075.593-.146.288-.116.514-.275.677-.479s.246-.448.249-.724c-.003-.251-.077-.458-.221-.621s-.347-.304-.607-.414a5.51 5.51 0 0 0-.691-.244v2.628zm-.771-4.415v-2.475l.022-.003a3.17 3.17 0 0 1 .387-.023 2.99 2.99 0 0 1 .362.021v-1.487c-.008-.001-.016-.001-.024-.001l-.314-.009-.433.017v1.485c-.194.026-.37.073-.526.139-.261.109-.46.258-.598.446a1.09 1.09 0 0 0-.211.644c0 .201.045.375.136.522s.221.273.381.376a2.66 2.66 0 0 0 .531.254l.287.094z" class="K"/><use xlink:href="#F" x="8.598"/><path d="M595.207 854.14v1.068h.771v-1.069c.605-.034 1.131-.149 1.58-.346.545-.242.962-.575 1.25-1.002s.433-.926.433-1.49c0-.417-.078-.781-.235-1.091s-.37-.575-.639-.794a3.68 3.68 0 0 0-.908-.546 6.27 6.27 0 0 0-1.048-.343l-.433-.108v-2.678c.355.042.654.149.898.322.326.229.511.549.555.959h1.678a2.5 2.5 0 0 0-.456-1.438c-.294-.42-.7-.748-1.217-.983-.428-.198-.914-.314-1.458-.347v-1.082h-.771v1.089c-.502.041-.961.154-1.377.34-.533.235-.955.566-1.265.992s-.461.923-.461 1.491c0 .689.229 1.242.686 1.659s1.088.723 1.881.926l.536.138v2.833a2.61 2.61 0 0 1-.621-.145c-.291-.11-.528-.276-.709-.498s-.286-.502-.311-.837h-1.716c.025.639.191 1.181.499 1.627s.739.783 1.288 1.015c.456.192.979.304 1.57.338zm.771-1.504c.216-.026.414-.075.593-.146.288-.116.514-.275.677-.479s.246-.448.249-.724c-.003-.251-.077-.458-.221-.621s-.347-.304-.607-.414a5.51 5.51 0 0 0-.691-.244v2.628zm-.771-4.415v-2.475l.022-.003a3.17 3.17 0 0 1 .387-.023 2.99 2.99 0 0 1 .362.021v-1.487c-.008-.001-.016-.001-.024-.001l-.314-.009-.433.017v1.485c-.194.026-.37.073-.526.139-.261.109-.46.258-.598.446a1.09 1.09 0 0 0-.211.644c0 .201.045.375.136.522s.221.273.381.376a2.66 2.66 0 0 0 .531.254l.287.094z" class="K"/><use xlink:href="#F" x="17.196"/></g><path d="M602.44 898.825c-4.717 3.471-11.524 5.295-17.353 5.295-8.231 0-15.617-3.026-21.224-8.098-.445-.4-.044-.934.49-.623 6.051 3.515 13.526 5.651 21.223 5.651 5.206 0 10.946-1.068 16.196-3.293.757-.356 1.424.49.668 1.068zm1.959-2.224c-.623-.757-3.96-.356-5.473-.178-.445.044-.534-.356-.133-.623 2.669-1.869 7.074-1.335 7.608-.712s-.133 5.072-2.669 7.163c-.401.312-.757.134-.579-.266.579-1.469 1.825-4.628 1.246-5.384zm-5.387-14.195v-1.824c0-.267.222-.445.445-.445h8.231c.267 0 .49.178.49.445v1.557c0 .267-.223.623-.623 1.157l-4.272 6.096c1.602-.045 3.248.178 4.672 1.023.312.178.401.445.445.712v1.958c0 .267-.311.578-.623.4a9.48 9.48 0 0 0-8.676 0c-.267.134-.579-.133-.579-.444v-1.869c0-.312 0-.801.312-1.246l4.939-7.075h-4.316c-.223.045-.445-.133-.445-.445zm-29.988 11.48h-2.492c-.223 0-.445-.178-.445-.445v-12.859c0-.267.222-.444.489-.444h2.314c.223 0 .445.177.445.444v1.691h.044c.623-1.602 1.736-2.358 3.293-2.358s2.536.756 3.248 2.358c.623-1.602 2.002-2.358 3.471-2.358 1.068 0 2.18.445 2.892 1.424.801 1.068.623 2.67.623 4.049v8.098c0 .267-.223.445-.49.445h-2.491c-.267 0-.445-.223-.445-.445v-6.808c0-.534.044-1.913-.089-2.403-.178-.845-.757-1.112-1.469-1.112-.623 0-1.245.401-1.512 1.068s-.223 1.735-.223 2.447v6.808c0 .267-.222.445-.489.445h-2.492c-.267 0-.445-.223-.445-.445v-6.808c0-1.424.223-3.559-1.557-3.559s-1.736 2.046-1.736 3.559v6.808c0 .178-.178.4-.444.4zm46.23-14.015c3.693 0 5.74 3.204 5.74 7.253 0 3.915-2.225 7.03-5.74 7.03-3.648 0-5.65-3.204-5.65-7.164.044-4.004 2.046-7.119 5.65-7.119zm.045 2.625c-1.824 0-1.958 2.492-1.958 4.094 0 1.557-.044 4.939 1.958 4.939 1.958 0 2.046-2.715 2.046-4.361 0-1.068-.044-2.358-.355-3.426-.356-.89-.89-1.246-1.691-1.246zm10.5 11.39h-2.492c-.267 0-.445-.222-.445-.445v-12.859c0-.222.223-.4.49-.4h2.313a.48.48 0 0 1 .445.356v1.958h.045c.712-1.736 1.691-2.581 3.426-2.581 1.112 0 2.225.4 2.937 1.513.667 1.023.667 2.758.667 4.004v8.098c-.045.223-.223.401-.489.401h-2.492c-.223 0-.401-.178-.445-.401v-7.03c0-1.424.178-3.47-1.557-3.47-.623 0-1.157.4-1.469 1.023-.356.801-.4 1.557-.4 2.447v6.897c-.045.267-.267.489-.534.489zm-33.325-6.14c0 .979.044 1.78-.49 2.669-.4.712-1.023 1.157-1.735 1.157-.979 0-1.513-.712-1.513-1.824 0-2.136 1.914-2.536 3.738-2.536v.534zm2.492 6.095c-.178.134-.401.178-.579.045-.845-.712-.979-1.023-1.424-1.646-1.379 1.379-2.358 1.824-4.138 1.824-2.091 0-3.737-1.29-3.737-3.916 0-2.046 1.112-3.426 2.67-4.093 1.379-.578 3.248-.712 4.716-.845v-.312c0-.578.044-1.29-.312-1.824-.311-.445-.889-.668-1.423-.668-.935 0-1.825.49-2.003 1.513-.044.223-.222.445-.445.445l-2.447-.267c-.222-.044-.445-.222-.356-.534.579-2.936 3.204-3.826 5.607-3.826 1.201 0 2.803.311 3.782 1.246 1.201 1.157 1.112 2.669 1.112 4.316v3.915c0 1.157.489 1.691.934 2.314.178.222.178.489 0 .667l-1.957 1.646zm-35.329-6.095c0 .979.045 1.78-.489 2.669-.4.712-1.023 1.157-1.735 1.157-.979 0-1.513-.712-1.513-1.824 0-2.136 1.913-2.536 3.737-2.536v.534zm2.537 6.095c-.178.134-.401.178-.579.045-.845-.712-.979-1.023-1.424-1.646-1.379 1.379-2.358 1.824-4.138 1.824-2.091 0-3.737-1.29-3.737-3.916 0-2.046 1.112-3.426 2.67-4.093 1.379-.578 3.248-.712 4.716-.845v-.312c0-.578.044-1.29-.312-1.824-.311-.445-.889-.668-1.423-.668-.935 0-1.825.49-2.003 1.513-.044.223-.222.445-.445.445l-2.447-.267c-.222-.044-.445-.222-.356-.534.579-2.936 3.204-3.826 5.607-3.826 1.201 0 2.803.311 3.782 1.246 1.201 1.157 1.112 2.669 1.112 4.316v3.915c0 1.157.489 1.691.934 2.314.178.222.178.489 0 .667l-1.957 1.646z" fill="#2f5edd" class="K"/><defs ><path id="B" d="M664.261 193.709c39.338 1.543 66.849 5.014 66.849 8.87 0 5.143-48.98 8.999-109.401 8.742s-109.4-4.628-109.4-9.641c0-3.729 26.611-6.814 64.92-8.099"/><path id="C" d="M1295.13 906.132c2.11 0 3.87-1.758 3.87-3.867s-1.76-3.867-3.87-3.867-3.86 1.758-3.86 3.867 1.75 3.867 3.86 3.867z"/><path id="D" d="M1375.87 828.562h-30v6.796h30v-6.796z"/><path id="E" d="M110.272 866.471a1.76 1.76 0 0 0 1.759-1.759 1.76 1.76 0 0 0-1.759-1.759 1.76 1.76 0 0 0-1.759 1.759 1.76 1.76 0 0 0 1.759 1.759z"/><path id="F" d="M578.011 845.746l.022-.003a3.17 3.17 0 0 1 .387-.023 2.99 2.99 0 0 1 .362.021v-1.487l-.024-.001-.314-.009-.433.017v1.485z"/></defs></svg>