<svg width="710" height="590" viewBox="0 0 710 590" fill="none" xmlns="http://www.w3.org/2000/svg">
<path d="M354.624 7.65247C546.955 7.65247 702.87 175.522 702.87 382.599H354.624V7.65247Z" fill="#FBF1E2"/>
<path d="M106.187 286.949C141.276 266.467 185.694 280.456 214.537 268.579C250.189 251.278 307.475 248.083 332.693 263.353C332.693 263.353 332.657 274.662 332.359 286.949H354.621V7.65247C192.992 7.65247 57.0907 126.205 17.8145 286.949H106.187Z" fill="#EDF3F4"/>
<path d="M7.60479 350.979C6.79623 361.405 6.38721 371.945 6.37775 382.599H38.0001C51.7239 378.339 68.9058 374.167 90.4329 370.411C169.938 356.54 105.395 346.677 7.60479 350.979Z" fill="#8EBCBB"/>
<path d="M47.5984 312.968C45.9705 300.682 91.7101 292.504 106.186 286.951H17.8179C13.5653 304.357 10.487 322.071 8.60712 339.955C42.8415 337.849 74.3035 336.605 98.8927 335.914C69.4396 328.004 48.5264 319.972 47.5984 312.968Z" fill="#8EBCBB"/>
<path d="M330.12 317.346L301.321 374.947C301.321 374.947 267.899 369.964 225.318 362.439C226.528 370.472 218.017 377.933 199.969 380.992C196.849 381.52 193.863 382.057 190.98 382.599H354.624V286.949H332.362C332.035 300.571 331.39 315.396 330.12 317.346Z" fill="#8EBCBB"/>
<path d="M47.5984 312.968C48.5264 319.974 69.4396 328.006 98.8927 335.914C123.343 335.227 141 335.086 147.808 335.189C197.829 335.948 223.429 349.894 225.318 362.439C267.899 369.964 301.321 374.947 301.321 374.947L330.12 317.346C332.233 316.01 332.786 266.174 332.693 263.353C307.315 247.974 249.763 251.429 214.537 268.58C185.699 280.455 141.269 266.469 106.186 286.95C91.7101 292.502 45.9705 300.681 47.5984 312.968Z" fill="#D6CEC2"/>
<path d="M225.318 362.439C223.429 349.892 197.829 335.946 147.808 335.189C141 335.086 123.343 335.227 98.8928 335.914C74.3035 336.605 42.8448 337.849 8.60711 339.955C8.22288 343.613 7.88877 347.288 7.60477 350.981C105.393 346.679 169.938 356.542 90.433 370.413C68.9075 374.169 51.7239 378.341 38.0001 382.601H190.98C193.863 382.061 196.849 381.522 199.97 380.994C218.017 377.933 226.528 370.472 225.318 362.439Z" fill="#F3DFC1"/>
<path d="M646.013 382.599V521.18C663.946 503.63 678.269 482.234 688.062 458.367C697.854 434.5 702.898 408.691 702.87 382.599H646.013Z" fill="#FBF1E2"/>
<path d="M589.157 382.599V558.476C610.161 550.098 629.466 537.434 646.013 521.18V382.599H589.157Z" fill="#FBF1E2"/>
<path d="M532.3 570.025C551.719 569.626 570.938 565.723 589.157 558.476V382.599H532.3V570.025Z" fill="#FBF1E2"/>
<path d="M475.444 382.599V561.117C493.806 567.46 513.02 570.472 532.3 570.028V382.599H475.444Z" fill="#FBF1E2"/>
<path d="M418.587 382.599V527.772C435.432 542.623 454.719 553.933 475.444 561.113V382.595L418.587 382.599Z" fill="#FBF1E2"/>
<path d="M361.731 382.599V473.859C374.768 481.546 386.388 491.737 396.016 503.93C402.857 512.594 410.412 520.574 418.587 527.773V382.599H361.731Z" fill="#FBF1E2"/>
<path d="M304.874 382.599V457.62C324.769 457.99 344.282 463.563 361.731 473.859V382.599H304.874Z" fill="#FBF1E2"/>
<path d="M248.018 382.599V457.589H302.72C303.439 457.589 304.157 457.607 304.874 457.62V382.599H248.018Z" fill="#FCE2BA"/>
<path d="M248.018 382.599H191.161V457.588H248.018V382.599Z" fill="#FBF1E2"/>
<path d="M191.161 382.599H134.305V457.588H191.161V382.599Z" fill="#FCE2BA"/>
<path d="M134.305 382.599H77.4483V457.588H134.305V382.599Z" fill="#FCE2BA"/>
<path d="M20.5919 382.599V427.993C27.2353 437.397 35.8477 444.979 45.7279 450.122C55.608 455.264 66.4765 457.821 77.4483 457.585V382.599H20.5919Z" fill="#FCE2BA"/>
<path d="M6.3777 382.599C6.35543 399.001 11.3508 414.954 20.5919 427.993V382.599H6.3777Z" fill="#FCE2BA"/>
<path d="M709.977 374.947H351.07V382.6H709.977V374.947Z" fill="white"/>
<path d="M709.977 252.516H351.07V260.168H709.977V252.516Z" fill="white"/>
<path d="M596.264 126.257H351.07V133.91H596.264V126.257Z" fill="white"/>
<path d="M358.178 382.599V0L351.07 0V382.599H358.178Z" fill="white"/>
<path d="M475 383V32H468V383H475Z" fill="white"/>
<path d="M596 383V126H589V383H596Z" fill="white"/>
<path d="M709.977 382.599V252.515H702.87V382.599H709.977Z" fill="white"/>
<path d="M487.525 180.587H475.444V252.516H487.525V180.587Z" fill="#5998C5"/>
<path d="M510.268 191.3H493.211V252.516H510.268V191.3Z" fill="#DBE7E9"/>
<path d="M495.344 180.587H486.105V252.516H495.344V180.587Z" fill="#7CB8DD"/>
<path d="M517.376 190.058L510.322 190.991L517.251 251.75L524.305 250.818L517.376 190.058Z" fill="#D3B291"/>
<path d="M522.277 203.527L518.086 204.081L523.521 251.734L527.711 251.18L522.277 203.527Z" fill="#F5987E"/>
<path d="M387.316 126.257H437.066V118.605H387.316V126.257Z" fill="#3B444F"/>
<path d="M387.316 118.606H437.066V111.719H387.316V118.606Z" fill="#7B9370"/>
<path d="M537.275 228.709H575.654V212.64H537.275V228.709Z" fill="#0D2135"/>
<path d="M545.804 228.794H567.125V221.142H545.804V228.794Z" fill="#697171"/>
<path d="M564.243 156.101H549.239L541.737 184.371L549.239 212.64H564.243L571.745 184.371L564.243 156.101Z" fill="#EDB665"/>
<path d="M549.239 156.101L541.737 184.371L549.239 212.64H549.253L564.202 156.101H549.239Z" fill="#F8C77E"/>
<path d="M418.587 172.935H393.712V252.515H418.587V172.935Z" fill="#A8BAAC"/>
<path d="M411.481 229.943C411.481 230.696 411.343 231.443 411.075 232.139C410.807 232.835 410.414 233.468 409.919 234.001C409.424 234.534 408.837 234.956 408.19 235.245C407.543 235.533 406.85 235.681 406.15 235.681C399.094 235.419 399.096 224.465 406.15 224.203C407.564 224.203 408.92 224.808 409.919 225.884C410.919 226.96 411.481 228.42 411.481 229.943Z" fill="#6E6558"/>
<path d="M406.15 226.116C407.083 226.131 407.973 226.541 408.628 227.257C409.283 227.973 409.65 228.937 409.65 229.942C409.65 230.947 409.283 231.911 408.628 232.627C407.973 233.343 407.083 233.753 406.15 233.768C405.217 233.753 404.327 233.343 403.672 232.627C403.017 231.911 402.65 230.947 402.65 229.942C402.65 228.937 403.017 227.973 403.672 227.257C404.327 226.541 405.217 226.131 406.15 226.116ZM406.15 224.203C405.45 224.203 404.757 224.351 404.11 224.64C403.463 224.928 402.876 225.351 402.381 225.884C401.886 226.417 401.493 227.05 401.225 227.746C400.958 228.443 400.82 229.189 400.82 229.943C401.064 237.539 411.238 237.537 411.481 229.943C411.481 228.42 410.919 226.96 409.919 225.884C408.92 224.808 407.564 224.203 406.15 224.203Z" fill="white"/>
<path d="M443.462 172.935H418.587V252.515H443.462V172.935Z" fill="#7B9370"/>
<path d="M436.355 229.942C436.355 231.464 435.793 232.924 434.794 234C433.794 235.077 432.438 235.681 431.025 235.681C423.969 235.419 423.971 224.465 431.025 224.203C431.725 224.203 432.418 224.351 433.065 224.64C433.711 224.928 434.299 225.351 434.794 225.884C435.289 226.417 435.682 227.05 435.949 227.746C436.217 228.442 436.355 229.189 436.355 229.942Z" fill="#6E6558"/>
<path d="M431.025 226.116C431.958 226.131 432.848 226.541 433.503 227.257C434.158 227.973 434.525 228.937 434.525 229.942C434.525 230.947 434.158 231.911 433.503 232.627C432.848 233.343 431.958 233.753 431.025 233.768C430.092 233.753 429.202 233.343 428.547 232.627C427.892 231.911 427.525 230.947 427.525 229.942C427.525 228.937 427.892 227.973 428.547 227.257C429.202 226.541 430.092 226.131 431.025 226.116ZM431.025 224.203C430.325 224.203 429.632 224.351 428.985 224.64C428.338 224.928 427.751 225.351 427.256 225.884C426.761 226.417 426.368 227.05 426.1 227.746C425.833 228.442 425.695 229.189 425.695 229.943C425.938 237.539 436.113 237.537 436.355 229.943C436.355 229.189 436.217 228.442 435.949 227.746C435.682 227.05 435.289 226.417 434.794 225.884C434.299 225.351 433.711 224.928 433.065 224.64C432.418 224.351 431.725 224.203 431.025 224.203Z" fill="white"/>
<path d="M468.337 172.935H443.462V252.515H468.337V172.935Z" fill="#124A53"/>
<path d="M461.228 229.942C461.228 231.464 460.667 232.924 459.667 234C458.667 235.077 457.312 235.681 455.898 235.681C448.842 235.419 448.844 224.465 455.898 224.203C456.598 224.203 457.291 224.351 457.938 224.64C458.585 224.928 459.172 225.351 459.667 225.884C460.162 226.417 460.555 227.05 460.823 227.746C461.09 228.442 461.228 229.189 461.228 229.942Z" fill="#6E6558"/>
<path d="M455.9 226.116C456.833 226.131 457.723 226.541 458.378 227.257C459.032 227.973 459.399 228.937 459.399 229.942C459.399 230.947 459.032 231.911 458.378 232.627C457.723 233.343 456.833 233.753 455.9 233.768C454.967 233.753 454.077 233.343 453.422 232.627C452.767 231.911 452.4 230.947 452.4 229.942C452.4 228.937 452.767 227.973 453.422 227.257C454.077 226.541 454.967 226.131 455.9 226.116ZM455.9 224.203C454.486 224.203 453.13 224.808 452.13 225.884C451.131 226.96 450.569 228.42 450.569 229.943C450.813 237.539 460.988 237.537 461.23 229.943C461.23 229.189 461.092 228.442 460.824 227.746C460.556 227.05 460.164 226.417 459.669 225.884C459.174 225.351 458.586 224.928 457.94 224.64C457.293 224.351 456.6 224.203 455.9 224.203Z" fill="white"/>
<path d="M608.346 180.587H596.264V252.516H608.346V180.587Z" fill="#7B9370"/>
<path d="M582.05 318.323H574.943V374.947H582.05V318.323Z" fill="#F8C77E"/>
<path d="M574.942 318.513L567.857 317.892L563.593 374.33L570.677 374.951L574.942 318.513Z" fill="#D6CEC2"/>
<path d="M589.158 318.323H582.05V374.947H589.158V318.323Z" fill="#5998C5"/>
<path d="M619.717 180.587H607.635V252.516H619.717V180.587Z" fill="#424435"/>
<path d="M539.52 308.524L481.194 308.284L492.514 263.022L528.52 263.169L539.52 308.524Z" fill="#FCE2BA"/>
<path d="M525.367 349.696L495.057 349.571C484.521 324.284 506.1 320.676 507.698 308.39L513.011 308.412C514.529 320.711 536.082 324.498 525.367 349.696Z" fill="#E16745"/>
<path fill-rule="evenodd" clip-rule="evenodd" d="M541.604 349.696H475.444V374.947H541.604V349.696Z" fill="#A59384"/>
<path fill-rule="evenodd" clip-rule="evenodd" d="M532.085 364.14C531.984 364.339 531.959 364.572 532.017 364.79C532.074 365.008 532.209 365.192 532.392 365.304L534.709 366.692C534.8 366.746 534.9 366.781 535.004 366.794C535.107 366.807 535.212 366.797 535.313 366.767C535.413 366.736 535.507 366.684 535.589 366.614C535.67 366.544 535.739 366.458 535.789 366.36C535.84 366.261 535.872 366.153 535.884 366.042C535.896 365.93 535.888 365.817 535.859 365.709C535.831 365.601 535.782 365.5 535.718 365.412C535.653 365.324 535.572 365.251 535.481 365.196C534.82 364.798 533.828 364.207 533.167 363.807C532.982 363.699 532.765 363.673 532.562 363.735C532.36 363.797 532.188 363.943 532.085 364.14Z" fill="#0D2135"/>
<path fill-rule="evenodd" clip-rule="evenodd" d="M516.949 359.284C517.697 361.689 517.527 364.317 516.476 366.587C515.426 368.858 513.581 370.587 511.347 371.394C500.017 374.937 494.678 357.775 505.701 353.253C507.935 352.448 510.375 352.63 512.484 353.761C514.593 354.892 516.199 356.879 516.949 359.284Z" fill="#EDF3F4"/>
<path d="M389.296 101.006H417.318C417.843 101.006 418.346 101.231 418.717 101.631C419.088 102.031 419.297 102.573 419.297 103.138V111.719H387.317V103.138C387.317 102.573 387.525 102.031 387.896 101.631C388.268 101.231 388.771 101.006 389.296 101.006Z" fill="#9DB3C8"/>
<path d="M426.3 85.0023C426.201 84.8955 426.084 84.8109 425.955 84.7531C425.825 84.6953 425.687 84.6656 425.547 84.6656C425.407 84.6656 425.268 84.6953 425.138 84.7531C425.009 84.8109 424.892 84.8955 424.793 85.0023C395.829 113.7 356.232 71.0275 382.878 39.8719C383.062 39.6534 383.161 39.3671 383.154 39.0723C383.147 38.7774 383.035 38.4968 382.841 38.2885C382.647 38.0803 382.386 37.9604 382.112 37.9538C381.838 37.9472 381.573 38.0544 381.37 38.2531C361.712 59.2921 375.399 95.8878 402.817 96.6064V101.339H405.299V96.5884C413.211 96.213 420.705 92.6567 426.301 86.622C426.5 86.407 426.612 86.1157 426.612 85.8119C426.612 85.5082 426.5 85.217 426.3 85.0023Z" fill="#9DB3C8"/>
<path d="M432.091 62.4138C432.09 54.4089 429.136 46.7321 423.879 41.072C418.622 35.4119 411.491 32.2321 404.057 32.2321C366.87 33.8221 366.88 91.0162 404.057 92.5999C407.738 92.5998 411.384 91.8189 414.785 90.3018C418.187 88.7848 421.277 86.5612 423.88 83.7582C426.484 80.9551 428.548 77.6274 429.957 73.9651C431.366 70.3029 432.091 66.3777 432.091 62.4138Z" fill="#7B9370"/>
<path d="M383.179 47.7052C384.815 45.8714 386.447 43.8129 388.712 43.0916C390.976 42.3703 394 43.8345 393.994 46.3778C393.871 47.5888 393.421 48.7343 392.699 49.6729C388.999 55.6096 385.771 61.8723 383.05 68.3944C382.281 70.238 381.664 72.7112 383.086 74.0296C385.887 76.3778 389.188 71.6257 392.141 72.7103C392.728 72.985 393.246 73.4044 393.654 73.9347C394.062 74.4649 394.348 75.0911 394.49 75.7626C394.853 77.0792 394.896 78.4732 395.172 79.8141C396.363 85.6166 402.482 89.6456 407.822 88.1428C408.964 87.7055 410.137 87.3722 411.33 87.1464C413.112 86.8766 415.173 88.3677 414.538 90.4118C417.21 89.2532 419.701 87.6576 421.921 85.6814C420.655 83.4897 420.25 80.6244 421.754 78.6989C423.374 76.6188 425.695 76.4605 427.124 74.2247C429.951 69.8 429.142 66.6766 427.124 65.807C423.571 64.2781 407.363 71.7795 407.225 64.2781C407.198 62.8545 409.994 60.9065 409.808 59.4955C409.608 57.9765 406.145 56.1805 403.71 55.8666C402.722 55.7659 401.797 55.2956 401.098 54.5374C400.398 53.7792 399.967 52.781 399.879 51.7162C399.565 46.0558 409.793 47.519 413.829 43.3371C416.831 40.2281 421.029 40.1652 424.631 41.9117C410.315 24.9467 383.604 31.4767 377.356 53.2073C379.436 51.552 381.384 49.7115 383.179 47.7052Z" fill="#E8F3FF"/>
<path d="M575.654 228.794H537.275V252.515H575.654V228.794Z" fill="#F5CEA9"/>
<path d="M157.74 165.276C158.302 151.111 145.55 140.047 132.848 143.398C131.37 143.777 129.823 143.694 128.387 143.158C126.952 142.622 125.688 141.656 124.746 140.373C121.999 136.575 118.482 133.502 114.464 131.39C110.446 129.279 106.033 128.183 101.562 128.188C96.4495 128.427 90.5574 130.347 86.9139 125.23C83.311 120.601 78.6743 117.034 73.4394 114.864C68.2046 112.694 62.5433 111.992 56.9875 112.825C51.4316 113.657 46.1635 115.996 41.6779 119.623C37.1923 123.249 33.6365 128.044 31.3445 133.556C30.4095 135.828 28.8762 137.754 26.9346 139.097C24.9929 140.44 22.7281 141.14 20.4206 141.111C17.5625 141.09 14.7325 141.719 12.1162 142.958C9.49994 144.197 7.1564 146.018 5.23925 148.3C3.32211 150.582 1.87466 153.275 0.991806 156.202C0.108951 159.129 -0.189372 162.223 0.116394 165.283H157.736L157.74 165.276Z" fill="white"/>
<path d="M172.69 202.776C172.472 199.491 177.412 196.931 182.332 197.703C183.423 197.901 184.543 197.651 185.471 197.002C188.11 195.057 191.255 194.067 194.452 194.176C196.432 194.231 198.712 194.677 200.127 193.49C203.05 191.46 206.475 190.43 209.952 190.535C215.169 190.535 219.657 192.542 221.653 195.421C222.405 196.5 224.047 197.181 225.884 197.172C230.549 197.127 234.293 199.8 233.751 202.777H172.691L172.69 202.776Z" fill="white"/>
<path d="M154.906 521.254H180.557V561.713H151.006L154.906 521.254Z" fill="#61382D"/>
<path d="M113.65 589.333H175.211C177.932 589.333 180.542 588.169 182.466 586.098C184.39 584.026 185.471 581.216 185.471 578.286H103.39C103.39 581.216 104.471 584.025 106.395 586.097C108.319 588.169 110.929 589.333 113.65 589.333Z" fill="#D7A38F"/>
<path d="M185.474 578.284H103.39C103.39 578.284 103.079 571.686 114.761 568.695C128.383 565.229 147.284 559.455 152.662 543.646C159.029 544.3 163.89 549.552 165.167 556.189H180.558L185.474 578.284Z" fill="#F5CEA9"/>
<path d="M161.247 562.486C159.45 553.677 147.292 552.561 146.25 552.383C145.556 552.071 138.125 548.299 132.404 549.917C123.961 552.667 125.505 561.799 133.81 562.214C139.101 562.214 144.14 556.908 145.78 555.003C146.256 557.477 147.824 564.185 151.317 567.408C155.784 571.736 162.624 570.033 161.247 562.486ZM131.706 559C127.961 557.448 128.839 553.998 133.101 552.576C136.231 551.622 140.722 553.048 143.131 553.993C140.499 556.794 135.587 560.769 131.706 559ZM157.88 566.701C156.878 567.33 154.873 567.049 152.987 565.31C150.509 563.025 149.13 558.217 148.525 555.535C152.148 556.34 157.944 558.539 158.727 563C158.914 564.067 159.054 565.969 157.879 566.701H157.88Z" fill="#D7A38F"/>
<path d="M109.478 464.629L134.163 472.138L123.946 511.073L95.5081 502.423L109.478 464.629Z" fill="#61382D"/>
<path d="M52.5843 518.066L111.826 536.086C114.445 536.883 117.251 536.527 119.625 535.097C122 533.666 123.75 531.279 124.49 528.459L45.5043 504.431C44.7641 507.25 45.0941 510.27 46.4218 512.827C47.7495 515.384 49.9662 517.268 52.5843 518.066Z" fill="#D7A38F"/>
<path d="M124.494 528.459L45.5043 504.431C45.5043 504.431 46.8717 497.99 58.869 498.533C72.8526 499.184 92.5003 499.163 101.668 485.521C107.629 488.014 110.981 494.491 110.535 501.252L125.346 505.757L124.494 528.459Z" fill="#F5CEA9"/>
<path d="M97.6022 492.124C98.197 489.627 88.5118 485.155 85.7595 484.721C79.5341 483.158 72.0306 491.273 79.5032 495.67C80.5048 496.247 81.5796 496.662 82.6931 496.902C78.9677 501.559 80.0152 510.643 87.2697 508.017C93.5887 505.587 97.6006 496.912 97.6022 492.124ZM79.1089 490.338C79.8114 488.519 82.6848 486.811 85.199 487.417C88.0669 488.177 90.812 489.399 93.3414 491.041C90.6594 491.858 88.0747 493.008 85.6392 494.467C83.73 494.513 81.8477 493.977 80.2098 492.919C78.5526 491.776 78.9711 490.694 79.1089 490.338ZM85.8873 505.566C81.517 506.807 82.9738 499.45 85.5423 497.836C85.8405 497.613 86.1504 497.4 86.4611 497.191C89.2627 497.024 92.0107 496.295 94.5634 495.041C93.4851 498.474 90.6167 504.228 85.8873 505.566Z" fill="#D7A38F"/>
<path fill-rule="evenodd" clip-rule="evenodd" d="M326.639 378.208C316.497 427.659 295.517 435.143 274.338 435.908L205.009 435.47C201.97 435.451 199.046 436.711 196.858 438.982C194.671 441.253 193.395 444.354 193.302 447.624L185.476 533.209H141.767L146.111 408.783C144.664 385.426 148.139 345.448 148.139 345.448L326.639 378.208Z" fill="#240B0B"/>
<path fill-rule="evenodd" clip-rule="evenodd" d="M136.374 354.026L107.566 467.751L144.078 483.039L150.692 395.817C150.848 393.755 151.495 391.771 152.572 390.056C153.648 388.342 155.116 386.955 156.836 386.03C158.555 385.105 160.467 384.673 162.386 384.776C164.306 384.878 166.168 385.512 167.794 386.615L245.5 439.36L291.094 440.054C316.503 440.936 340.383 427.767 348.227 401.731L351.781 360.792L302.387 367.447L172.352 331.815C164.846 329.636 156.844 330.751 150.099 334.914C143.355 339.078 138.419 345.951 136.374 354.026Z" fill="#240B0B"/>
<path d="M328.697 232.008L273.261 284.807L273.781 325.264L343.622 298.581L328.697 232.008Z" fill="#1B3F59"/>
<path d="M245.974 337.098C245.75 332.962 246.25 328.818 247.448 324.881L268.992 253.141C271.155 245.281 268.731 238.47 269.713 230.122L271.346 215.248C271.795 211.873 275.582 210.401 276.725 213.335C276.205 207.886 280.69 205.761 282.584 208.783C283.383 204.002 288.848 204.118 289.523 208.364C290.343 204.097 295.697 204.187 295.947 208.102L296.375 214.649C296.749 214.037 297.259 213.534 297.858 213.187C298.457 212.839 299.128 212.657 299.808 212.657C300.127 212.682 300.436 212.79 300.706 212.973C300.977 213.156 301.202 213.408 301.361 213.706C301.52 214.005 301.609 214.341 301.619 214.685C301.629 215.029 301.56 215.37 301.419 215.679C300.285 218.106 299.359 220.638 298.651 223.245L297.142 233.258L291.323 242.799C289.948 245.054 289.114 247.641 288.895 250.329L281.795 337.605L245.974 337.098Z" fill="#553129"/>
<path d="M357.467 190.535C357.216 186.802 359.322 178.729 359.374 178.608H359.369C359.369 178.608 362.098 169.417 362.098 164.351C362.096 155.594 359.132 147.138 353.76 140.563C348.388 133.988 340.975 129.745 332.908 128.628C324.841 127.511 316.672 129.596 309.929 134.494C303.187 139.391 298.332 146.765 296.273 155.237L292.732 156.293L295.355 167.944C295.433 168.805 295.548 169.653 295.682 170.494H295.676C296.585 179.535 295.272 184.695 294.706 186.431C294.139 188.167 293.516 190.586 296.112 192.02C296.636 192.277 297.102 192.653 297.477 193.123C297.852 193.592 298.127 194.145 298.284 194.741L301.234 203.956C303.195 210.45 306.496 213.473 312.668 211.965C318.272 210.585 322.42 209.661 324.246 209.243C324.821 214.263 324.27 219.359 322.64 224.102L360.061 210.055C358.827 207.506 358.178 199.902 357.467 190.535Z" fill="#61382D"/>
<path d="M305.139 152.726C301.443 153.663 296.384 155.194 292.733 156.291C292.105 153.362 289.31 150.459 289.687 147.64C290.172 144.421 293.605 142.708 294.699 139.899L296.156 136.122C296.522 135.174 297.079 134.325 297.787 133.637C298.495 132.949 299.336 132.439 300.249 132.145L303.968 130.946C305.762 130.509 307.587 128.232 308.885 126.954C311.597 123.941 315.244 125.629 318.591 125.251C320.268 125.026 321.791 123.946 323.289 123.172C324.1 122.753 324.983 122.522 325.882 122.493C326.781 122.465 327.676 122.64 328.508 123.006C329.771 123.693 331.119 124.182 332.511 124.457C333.905 124.505 335.299 124.354 336.657 124.007C337.619 123.834 338.605 123.899 339.54 124.197C340.476 124.495 341.336 125.018 342.056 125.727C343.649 127.445 345.302 128.026 347.462 128.498C348.424 128.709 349.33 129.154 350.108 129.801C350.886 130.447 351.516 131.276 351.95 132.225C352.674 133.811 353.934 135.039 355.471 135.657C356.538 135.998 357.507 136.626 358.286 137.483C359.065 138.339 359.628 139.395 359.922 140.551C360.359 142.83 361.378 144.934 362.864 146.625C363.548 147.378 364.062 148.289 364.369 149.289C364.676 150.289 364.767 151.351 364.636 152.394C364.288 154.971 364.691 157.601 365.79 159.921C366.173 160.81 366.376 161.777 366.386 162.757C366.396 163.736 366.212 164.707 365.848 165.605C364.748 167.888 364.207 170.434 364.276 173.005C364.13 175.322 363.817 177.805 362.138 179.458C360.235 181.334 358.189 190.202 358.173 190.347C352.459 190.367 343.542 188.332 341.979 180.267C341.552 177.987 340.669 173.147 340.235 170.831L340.205 170.837C340.027 168.714 339.088 166.748 337.587 165.358C336.086 163.967 334.14 163.261 332.164 163.39C330.187 163.519 328.334 164.472 327 166.047C325.665 167.622 324.953 169.696 325.015 171.827C325.085 174.151 325.934 176.604 326.505 178.833L325.015 180.267C324.672 179.033 318.823 163.131 318.06 162.139C317.298 161.146 316.357 160.329 315.295 159.736C312.745 158.32 310.071 158.757 307.324 159.086L305.139 152.726Z" fill="#0D2135"/>
<path d="M322.271 171.149C322.24 171.02 322.186 170.898 322.111 170.791C322.037 170.684 321.943 170.593 321.836 170.525C321.729 170.457 321.61 170.412 321.487 170.394C321.364 170.375 321.239 170.383 321.118 170.417L300.857 176.036L299.224 169.451C299.153 169.197 298.993 168.984 298.779 168.855C298.564 168.726 298.311 168.692 298.073 168.761C297.836 168.829 297.632 168.994 297.506 169.221C297.379 169.448 297.34 169.719 297.395 169.977L301.143 185.1C301.211 185.358 301.37 185.576 301.586 185.709C301.803 185.841 302.059 185.877 302.299 185.808C302.539 185.739 302.745 185.57 302.871 185.34C302.997 185.109 303.034 184.834 302.973 184.574L301.345 178.009L321.59 172.393C321.711 172.36 321.824 172.301 321.924 172.221C322.023 172.14 322.107 172.039 322.17 171.924C322.234 171.808 322.275 171.68 322.292 171.547C322.31 171.414 322.302 171.279 322.271 171.149Z" fill="white"/>
<path d="M309.508 239.66C292.354 282.753 265.43 349.849 265.43 349.849C304.164 366.531 332.948 415.5 332.948 415.5L344.318 417.413C363.586 397.371 371.494 361.025 374.168 333.624L380.92 277.765C383.76 238.739 360.065 210.05 360.065 210.05L324.433 222.061C319.873 223.772 313.772 228.948 309.508 239.66Z" fill="#1B3F59"/>
<path d="M305.653 339.049L249.738 319.443C241.97 316.726 237.062 309.697 237.062 309.697L229.478 301.266C228.195 299.84 226.582 298.808 224.806 298.275C223.03 297.742 221.154 297.729 219.371 298.235L195.599 305C190.826 306.119 193.457 310.013 196.159 309.92C193.569 310.999 196.66 314.77 201.8 312.882C199.633 314.99 203.54 316.701 207.737 315.22C206.03 317.216 208.489 319.157 213.23 317.582C215.423 317.098 216.764 319.421 216.764 319.421L220.462 325.573C223.36 330.542 227.756 329.74 231.379 331.367C235.002 332.994 240.512 339.248 244.649 341.994L292.109 373.783C298.85 378.298 306.922 379.918 314.722 378.321C322.521 376.724 329.477 372.027 334.208 365.163L305.653 339.049Z" fill="#4B1902"/>
<path d="M407.063 299.268L374.177 490.671L337.24 450.902C342.627 396.879 359.931 339.744 390.381 294.136L393.054 292.857C394.359 292.233 395.769 291.904 397.196 291.892C398.624 291.879 400.039 292.183 401.353 292.784C402.666 293.386 403.851 294.271 404.834 295.387C405.816 296.502 406.575 297.823 407.063 299.268Z" fill="#C66F53"/>
<path d="M199.546 490.497H374.908L337.971 450.116L335.627 449.377C304.689 439.67 272.633 434.711 240.408 434.648C208.812 434.526 199.521 434.648 199.521 434.648C193.792 434.648 189.74 437.696 189.74 448.45V480.546C190.451 487.432 193.807 490.507 199.546 490.497Z" fill="#C66F53"/>
<path d="M420.6 579.791C419.164 579.795 417.756 579.371 416.53 578.566C415.304 577.762 414.309 576.609 413.653 575.234L374.253 492.966C373.782 492 373.629 490.891 373.816 489.818L393.397 377.234C394.309 371.934 401.549 372.01 402.274 377.425L428.335 570.165C428.488 571.359 428.403 572.574 428.085 573.729C427.767 574.884 427.224 575.953 426.492 576.864C425.76 577.775 424.855 578.508 423.839 579.013C422.823 579.517 421.719 579.783 420.6 579.791ZM397.814 377.107C397.59 377.091 397.369 377.168 397.197 377.323C397.025 377.478 396.914 377.699 396.889 377.939C396.999 378.729 376.877 490.535 377.403 491.194L416.812 573.484C417.272 574.451 418.037 575.211 418.969 575.628C419.902 576.045 420.942 576.092 421.904 575.76C422.865 575.428 423.686 574.739 424.22 573.816C424.753 572.893 424.965 571.795 424.817 570.72L398.756 377.98C398.747 377.856 398.716 377.735 398.664 377.624C398.612 377.513 398.54 377.414 398.453 377.333C398.365 377.252 398.264 377.19 398.154 377.151C398.045 377.113 397.929 377.097 397.814 377.107Z" fill="#124A53"/>
<path d="M203.708 581.322C203.46 581.321 203.214 581.265 202.987 581.156C202.759 581.046 202.556 580.887 202.389 580.689C202.223 580.49 202.097 580.256 202.019 580.001C201.941 579.747 201.914 579.478 201.939 579.211L217.291 420.029C216.949 402.133 233.799 393.499 249.099 397.159L385.958 423.971C386.421 424.062 386.832 424.347 387.101 424.764C387.369 425.182 387.472 425.696 387.388 426.196C387.304 426.695 387.039 427.137 386.651 427.426C386.264 427.715 385.786 427.826 385.322 427.736L248.426 400.912C244.282 399.939 239.992 399.943 235.849 400.926C226.173 403.339 220.845 410.157 220.845 420.126C220.711 420.226 205.588 579.469 205.476 579.606C205.43 580.077 205.225 580.513 204.898 580.83C204.572 581.147 204.148 581.322 203.708 581.322Z" fill="#124A53"/>
<path d="M213.197 490.192L213.19 494.018L376.067 494.352L376.074 490.526L213.197 490.192Z" fill="#124A53"/>
<path fill-rule="evenodd" clip-rule="evenodd" d="M88.1501 233.506H84.2192C83.9367 233.506 83.6582 233.578 83.4068 233.717C83.1553 233.855 82.9381 234.056 82.7731 234.303C82.6081 234.55 82.5 234.836 82.4578 235.136C82.4156 235.437 82.4404 235.744 82.5303 236.033L114.533 338.869H210.364C210.364 336.44 209.467 334.111 207.872 332.394C206.277 330.677 204.114 329.712 201.858 329.712H121.197L92.522 236.893C92.2151 235.906 91.6279 235.048 90.8433 234.44C90.0588 233.832 89.1166 233.505 88.1501 233.506Z" fill="#0D2135"/>
<path fill-rule="evenodd" clip-rule="evenodd" d="M663.734 470.597C664.823 470.542 665.887 470.953 666.695 471.74C667.503 472.528 667.989 473.628 668.046 474.8V498.533C667.989 499.705 667.503 500.805 666.695 501.592C665.887 502.38 664.823 502.791 663.734 502.736H547.936V470.597H663.734Z" fill="#A0B4B7"/>
<path d="M660.946 498.909H547.936V474.423H660.946C661.887 474.423 662.789 474.825 663.454 475.541C664.119 476.257 664.493 477.229 664.493 478.241V495.09C664.493 496.103 664.119 497.074 663.454 497.79C662.789 498.507 661.887 498.909 660.946 498.909Z" fill="#FDFAF5"/>
<path fill-rule="evenodd" clip-rule="evenodd" d="M622.746 480.544C624.607 480.544 626.114 481.844 626.114 483.447V499.833C626.114 501.436 624.607 502.736 622.746 502.736H532.3V480.544H622.746Z" fill="#666850"/>
<path d="M621.298 500.44H532.3V482.84H621.298C622.01 482.84 622.692 483.144 623.196 483.686C623.699 484.228 623.982 484.963 623.982 485.729V497.55C623.982 497.93 623.912 498.305 623.777 498.656C623.643 499.006 623.445 499.325 623.196 499.593C622.946 499.862 622.651 500.074 622.325 500.22C621.999 500.365 621.65 500.44 621.298 500.44Z" fill="#FDFAF5"/>
<path d="M693.631 533.344C693.609 525.234 690.607 517.463 685.281 511.728C679.955 505.993 672.738 502.76 665.206 502.736H523.061C515.528 502.759 508.31 505.992 502.984 511.727C497.657 517.462 494.655 525.233 494.633 533.344V540.996H693.631V533.344Z" fill="#A8BAAC"/>
<path d="M494.633 540.996V548.648C494.655 556.758 497.657 564.529 502.984 570.264C508.31 575.999 515.528 579.232 523.061 579.255H665.206C672.738 579.231 679.955 575.998 685.281 570.263C690.607 564.528 693.609 556.757 693.631 548.648V540.996H494.633Z" fill="#FCE2BA"/>
</svg>
